<svg width="24" height="24" viewBox="0 0 24 24" fill="none" xmlns="http://www.w3.org/2000/svg">
<path d="M6.51001 7.59001C6.51001 6.56097 6.91879 5.57407 7.64644 4.84643C8.37408 4.11879 9.36097 3.71001 10.39 3.71001H13.61C14.639 3.71001 15.6259 4.11879 16.3536 4.84643C17.0812 5.57407 17.49 6.56097 17.49 7.59001" stroke="white" stroke-width="2" stroke-linecap="round" stroke-linejoin="round"/>
<path d="M20.48 7.59H3.52C2.68053 7.59 2 8.27052 2 9.11V18.77C2 19.6095 2.68053 20.29 3.52 20.29H20.48C21.3195 20.29 22 19.6095 22 18.77V9.11C22 8.27052 21.3195 7.59 20.48 7.59Z" stroke="white" stroke-width="2" stroke-linecap="round" stroke-linejoin="round"/>
<path d="M12 11.28V16.61" stroke="white" stroke-width="2" stroke-linecap="round" stroke-linejoin="round"/>
<path d="M14.6601 13.94H9.34009" stroke="white" stroke-width="2" stroke-linecap="round" stroke-linejoin="round"/>
</svg>
