<svg width="30" height="21" viewBox="0 0 30 21" fill="none" xmlns="http://www.w3.org/2000/svg">
<path d="M9.23912 10.5441L12.7481 10.5442C13.056 10.5442 13.3637 10.3254 13.3637 10.1068L13.3638 7.30677C13.3638 5.95056 14.9029 4.81307 16.7498 4.81312C17.0577 4.81313 17.3654 4.63812 17.3654 4.37568L17.3655 2.14425C17.3655 1.8818 17.0576 1.70678 16.75 1.70677L16.196 1.70676C12.0713 1.70664 8.62393 4.15665 8.62381 7.17527L8.62369 10.1065C8.62369 10.3253 8.93157 10.5441 9.23923 10.5441L9.23912 10.5441Z" fill="white"/>
<path d="M9.11647 0.437619C9.11648 0.218807 8.87021 0.000152964 8.50093 0.000142881L5.23803 5.37889e-05C5.05338 4.87471e-05 4.86873 0.0438365 4.7457 0.131266C4.68408 0.21885 4.62245 0.306282 4.62245 0.437504L4.62231 4.1562C3.76043 4.68121 3.26786 5.51237 3.26782 6.38744L3.26782 6.47487C4.31432 6.08123 5.66873 5.77486 7.26938 5.55624C7.45403 5.55624 7.63868 5.51245 7.76192 5.51246C8.06984 4.72497 8.50076 4.02506 9.17801 3.41243L9.17791 0.437597L9.11647 0.437619Z" fill="white"/>
<path d="M4.92947 18.8564L4.92953 17.5C4.92953 17.3688 4.99116 17.2376 5.17581 17.15L6.46862 16.4499L5.72998 12.6436C5.66837 12.3812 5.91465 12.1624 6.22254 12.1624C6.53043 12.1186 6.89971 12.2937 6.8997 12.5561L7.69978 16.5811C7.76139 16.7561 7.63814 16.8873 7.45349 16.9748L6.16068 17.7189L6.1606 19.6001C7.6996 20.4751 9.36161 21.0002 10.8392 21.0003C11.1471 21.0003 11.3932 21.0003 11.6395 20.9565C12.3783 20.8691 12.9939 20.6503 13.6711 20.3879L12.5014 18.4628C12.4398 18.419 12.4398 18.3316 12.4398 18.2878L12.4399 16.3627L10.4703 14.044C10.2856 13.8252 10.4087 13.5627 10.6549 13.4315C10.9628 13.3003 11.3321 13.3877 11.5168 13.5627L13.5483 15.9253C13.6099 16.0127 13.6713 16.0565 13.6713 16.1441L13.6712 18.1128L14.6562 19.7752C17.2418 18.0691 18.6579 14.8316 17.7962 11.7254C17.3654 10.0191 16.2573 8.6191 14.6567 7.7003L14.6566 10.1066C14.6566 10.8067 13.7947 11.4192 12.8096 11.4191L9.23901 11.4189C8.25392 11.4189 7.39209 10.8063 7.39212 10.1063L7.39224 7.17507C7.39225 6.91262 7.39226 6.65003 7.45389 6.43136L7.39248 6.43136C1.72883 7.2187 -0.733692 9.40612 0.189585 12.9061C0.74366 15.0498 2.65191 17.2812 4.92966 18.8562L4.92947 18.8564Z" fill="white"/>
<path d="M28.9389 13.0822L27.7078 13.0822L26.3535 9.36343C26.2919 9.14462 26.0457 9.01339 25.738 9.01338C25.4301 9.01337 25.184 9.18838 25.184 9.3634L23.9527 14.3071L23.214 12.4696C23.1524 12.2946 22.9678 12.1634 22.7215 12.1634C22.4752 12.1196 22.229 12.2071 22.1059 12.3822L20.8131 13.8695L19.6435 11.1133C19.5819 10.9383 19.3356 10.8071 19.0896 10.807C18.9665 10.807 18.8433 10.807 18.7817 10.8508C18.9047 11.1133 18.9663 11.3321 19.0279 11.5945C19.1509 12.1633 19.2741 12.7321 19.2741 13.3008L20.0743 15.0946C20.1359 15.2697 20.3205 15.4009 20.5668 15.4009C20.8131 15.4447 21.0593 15.3571 21.1824 15.1821L22.4135 13.6947L23.5215 16.4073C23.5831 16.5823 23.8294 16.7135 24.1371 16.7135L24.1987 16.7135C24.5066 16.7135 24.7526 16.5385 24.7526 16.3635L25.9226 11.5511L26.7227 13.6512C26.7843 13.8262 27.0306 14.0012 27.3382 14.0012L28.9389 14.0011C29.3082 14.0011 29.5545 13.8261 29.5545 13.5637C29.5545 13.2573 29.3082 13.0823 28.9389 13.0822L28.9389 13.0822Z" fill="white"/>
</svg>
