<svg width="28" height="29" viewBox="0 0 28 29" fill="none" xmlns="http://www.w3.org/2000/svg">
<rect width="27.52" height="27.7333" transform="translate(0.399902 0.911133)" fill="white"/>
<path fill-rule="evenodd" clip-rule="evenodd" d="M10.9002 24.9136V21.3698C10.9002 20.4684 11.6294 19.736 12.5328 19.73H15.8422C16.75 19.73 17.4858 20.4641 17.4858 21.3698V21.3698V24.9246C17.4856 25.6899 18.0979 26.3153 18.8647 26.3333H21.071C23.2703 26.3333 25.0533 24.5545 25.0533 22.3603V22.3603V12.2792C25.0415 11.416 24.6353 10.6054 23.9501 10.0781L16.4048 4.01407C15.0829 2.9582 13.2038 2.9582 11.882 4.01407L4.36972 10.0891C3.68199 10.6143 3.27507 11.4262 3.2666 12.2902V22.3603C3.2666 24.5545 5.04953 26.3333 7.24887 26.3333H9.45512C10.241 26.3333 10.8781 25.6977 10.8781 24.9136V24.9136" fill="#878787"/>
</svg>
