<svg width="14" height="20" viewBox="0 0 14 20" fill="none" xmlns="http://www.w3.org/2000/svg">
<path fill-rule="evenodd" clip-rule="evenodd" d="M3.53165 0.936777C5.71652 -0.332728 8.40208 -0.310539 10.5664 0.994901C12.7095 2.32693 14.0121 4.70421 13.9999 7.26149C13.95 9.802 12.5534 12.1901 10.8075 14.0362C9.79989 15.1065 8.67267 16.0529 7.44889 16.8561C7.32285 16.929 7.18479 16.9778 7.04153 17.0001C6.90364 16.9942 6.76936 16.9535 6.65079 16.8815C4.78246 15.6747 3.14335 14.1341 1.81234 12.334C0.698593 10.8314 0.0658361 9.01606 1.16174e-06 7.13446C-0.00144468 4.57227 1.34677 2.20628 3.53165 0.936777ZM4.79452 8.19495C5.16204 9.10101 6.02954 9.69202 6.99197 9.69203C7.62248 9.69655 8.22856 9.44401 8.67519 8.99065C9.12181 8.5373 9.37187 7.92081 9.36963 7.27854C9.373 6.29819 8.79584 5.41247 7.90764 5.03492C7.01944 4.65738 5.99541 4.8625 5.31368 5.5545C4.63195 6.2465 4.427 7.28889 4.79452 8.19495Z" fill="white"/>
<ellipse opacity="0.4" cx="6.99954" cy="19" rx="5.00003" ry="1.00001" fill="white"/>
</svg>
