<svg width="38" height="38" viewBox="0 0 38 38" fill="none" xmlns="http://www.w3.org/2000/svg">
<path d="M33.2853 18.9253C33.2853 11.166 26.9967 4.87732 19.2373 4.87732C11.478 4.87732 5.18933 11.166 5.18933 18.9253C5.18933 25.9378 10.3234 31.7496 17.0434 32.8038V22.9894H13.4793V18.9253H17.0434V15.8309C17.0434 12.3129 19.1369 10.3659 22.3471 10.3659C23.8863 10.3659 25.4953 10.643 25.4953 10.643V14.0991H23.725C21.9778 14.0991 21.4389 15.1845 21.4389 16.293V18.9253H25.3339L24.7106 22.9894H21.4389V32.8038C28.1512 31.7496 33.2853 25.9378 33.2853 18.9253Z" fill="#1877F2"/>
<path d="M24.7023 22.9894L25.3262 18.9253H21.4312V16.293C21.4312 15.1845 21.9777 14.0991 23.7173 14.0991H25.4875V10.643C25.4875 10.643 23.8786 10.3659 22.3394 10.3659C19.1297 10.3659 17.0357 12.3134 17.0357 15.8309V18.9253H13.4716V22.9894H17.0357V32.8037C17.7518 32.919 18.4827 32.9733 19.2296 32.9733C19.9764 32.9733 20.7074 32.9119 21.4235 32.8037V22.9894H24.7023Z" fill="white"/>
</svg>
