<svg width="38" height="38" viewBox="0 0 38 38" fill="none" xmlns="http://www.w3.org/2000/svg">
<path d="M32.9732 19.2366C32.9732 18.0849 32.8776 17.2444 32.6706 16.3728H19.2119V21.5712H27.1119C26.9526 22.8631 26.0926 24.8086 24.1812 26.116L24.1544 26.29L28.4098 29.5114L28.7047 29.5402C31.4123 27.0966 32.9732 23.5012 32.9732 19.2366" fill="#4285F4"/>
<path d="M19.2122 32.9331C23.0825 32.9331 26.3317 31.6879 28.7049 29.5401L24.1815 26.1159C22.9711 26.9408 21.3464 27.5166 19.2122 27.5166C15.4215 27.5166 12.2042 25.0731 11.0573 21.6957L10.8892 21.7096L6.46436 25.056L6.40649 25.2131C8.76373 29.789 13.6057 32.9331 19.2122 32.9331Z" fill="#34A853"/>
<path d="M11.0572 21.6959C10.7546 20.8243 10.5795 19.8904 10.5795 18.9254C10.5795 17.9604 10.7546 17.0266 11.0413 16.155L11.0333 15.9694L6.55302 12.5693L6.40644 12.6374C5.43491 14.5363 4.87744 16.6686 4.87744 18.9254C4.87744 21.1823 5.43491 23.3145 6.40644 25.2134L11.0572 21.6959" fill="#FBBC05"/>
<path d="M19.2122 10.3337C21.9039 10.3337 23.7196 11.4699 24.7549 12.4194L28.8005 8.5594C26.3159 6.30259 23.0825 4.91736 19.2122 4.91736C13.6057 4.91736 8.76373 8.06132 6.40649 12.6372L11.0414 16.1548C12.2042 12.7773 15.4215 10.3337 19.2122 10.3337" fill="#EB4335"/>
</svg>
